<?xml version="1.0" encoding="UTF-8"?>
<svg id="Layer_1" data-name="Layer 1" xmlns="http://www.w3.org/2000/svg" version="1.1" viewBox="0 0 1961.99 749.25">
  <defs>
    <style>
      .cls-1 {
        fill: #26a6cf;
      }

      .cls-1, .cls-2 {
        stroke-width: 0px;
      }

      .cls-2 {
        fill: #00242e;
      }
    </style>
  </defs>
  <path class="cls-1" d="M490.23,584.51h-63.5v-203.2h63.5v203.2ZM710.33,576.91l-124.53-111.78v119.37h-57.1v-168.58c0-27.03,16.4-37.97,34.32-37.97,7.59,0,15.19,1.82,25.21,10.93l124.53,111.78v-119.37h57.41v168.27c0,27.03-16.4,38.27-34.63,38.27-7.9,0-15.49-1.82-25.21-10.93ZM829.94,340.97l129.74,175.2,95.33-134.86h74.85l-131.3,183.76c-8.9,11.85-21.47,22.78-41.11,22.78s-31.6-10.02-40.5-22.78l-136.01-193.1,49-31ZM1415.94,482.75c0,72.59-49.96,105.09-148.98,105.09s-148.98-32.5-148.98-105.09,49.66-104.79,148.98-104.79,148.98,32.2,148.98,104.79ZM1353.18,482.75c0-43.74-22.85-51.94-86.22-51.94s-86.22,8.2-86.22,51.94,22.85,52.24,86.22,52.24,86.22-8.5,86.22-52.24ZM1704.92,584.51h-96.02l-61.97-53.46c-21.17-18.22-30.98-27.03-38.04-34.02.31,9.42.92,19.44.92,29.16v58.32h-63.81v-203.2h63.81v47.08c0,12.45-.61,24.91-1.23,35.54,7.98-7.29,19.02-17.62,37.73-33.11l59.21-49.51h92.03l-78.54,58.32c-27.3,20.35-39.88,29.46-53.07,37.36,11.66,7.9,27.61,19.14,53.99,40.4l84.98,67.13ZM1961.99,532.26l-40.8,52.24h-197.56v-203.2h237.75l-41.11,52.85h-132.83v24.3h162.59l-36.51,46.17h-126.09v27.64h174.56Z"/>
  <path class="cls-1" d="M406.19,238.04c61.76-51.07,170.2-73.17,256.68-38.69,5.25,2.01,11.97,4.94,17.06,7.32,3.89,2.03,9.55,4.49,13.29,6.66,2.13,1.18,7.71,4.23,9.78,5.38,9.45,5.68,19.07,11.88,27.86,18.55,0,0,5.96,4.47,5.96,4.47,3.27,2.75,8.29,6.72,11.46,9.54,23.88,20.93,44.38,45.07,59.91,73.1.81,1.47.25,3.32-1.23,4.1l-36.07,19.05c-1.45.77-3.24.22-4.03-1.22-11.02-20.07-25.37-39.3-41.34-56.04-1.34-1.35-5.37-5.41-6.78-6.84-2.57-2.56-6.7-6.23-9.39-8.78-7.96-7-16.52-13.98-25.22-20.01-1.28-.98-3.93-2.82-5.3-3.68-3.18-2.1-7.6-5.11-10.87-6.96-7.11-4.33-15.21-8.75-22.74-12.27-58.45-28.62-124.83-31.69-186.92-12.42-17.42,5.37-34.52,12.15-51.58,19.6l-.51-.86Z"/>
  <path class="cls-2" d="M332.02,303.2c3.41-6.8,6.85-13.84,10.56-20.52,1.96-3.35,5.95-9.92,7.93-13.25,15.21-24.33,33.69-46.15,55.06-65.66,31.28-28.79,69.85-50.82,110.87-62.68,2.58-.86,5.22-1.45,7.84-2.13,4.69-1.1,11.16-2.95,15.86-3.65,2.75-.49,9.33-1.87,12.03-2.19,4.6-.57,11.56-1.75,16.18-2.08,11.94-1.11,24.69-1.74,36.69-1.42,10.56.05,22.11,1.08,32.6,2.35,46.12,5.93,91.03,21.08,130.57,48.09l-28.49,41.32c-20.65-13.9-44.27-25.38-68.25-33.38-1.74-.67-4.86-1.55-6.69-2.13,0,0-6.72-2.07-6.72-2.07,0,0-6.8-1.78-6.8-1.78-11.18-2.94-23.05-5.4-34.53-6.91-11.51-1.67-23.59-2.56-35.19-2.88-6.57.01-14.67.03-21.22.49-72.16,3.82-138.17,34.56-189.36,85.25-14.23,14.07-25.05,30-38.08,45.76l-.85-.53h0Z"/>
  <path class="cls-1" d="M291.94,413.45c-10.2-165.6,89.28-305.79,251.1-346.88,34.7-8.7,70.46-12.22,106.34-9.38,2.22.18,3.86,2.16,3.64,4.38l-4.69,48.43c-.21,2.2-2.17,3.79-4.37,3.59-103.6-9.49-212.8,33.58-277.99,115.85-27.69,34.08-47.39,75.1-59.25,117.49-4.6,16.24-8.3,32.94-11.12,49.65-1.02,5.61-1.74,11.26-2.65,16.92,0,0-1-.04-1-.04h0Z"/>
  <path class="cls-2" d="M309.49,530.18c-62.03-109.03-74.23-241.15-17.99-355.33,29.68-60.7,73.13-110.57,130.44-146.88,16.95-10.55,34.2-20.98,53.27-27.74,2.06-.73,4.33.31,5.1,2.35l19.23,50.69c.78,2.05-.24,4.33-2.28,5.14-24.39,9.78-45.06,22.07-64.32,35.55-64.5,45.33-111.21,109.57-135.55,184.44-23.29,70.34-21.74,145.29.39,216,3.71,11.91,7.97,23.68,12.61,35.34,0,0-.9.43-.9.43h0Z"/>
  <path class="cls-1" d="M391.64,642.37c-118.81-73.19-199.81-197.75-204.16-338.93-2.82-90.27,21.59-183.04,76.39-255.77,4.01-5.21,8.26-10.29,12.7-15.29,1.47-1.65,4.01-1.78,5.65-.3l45.94,41.39c1.57,1.41,1.76,3.79.46,5.45-7.1,9.08-13.68,18.42-20.12,27.49-51.58,73.43-74.01,166.86-65.91,256.1,9.2,104.05,56.35,192.48,134.55,264.61,0,0,3.71,3.67,3.71,3.67,1.24,1.22,2.53,2.39,3.79,3.59,2.55,2.37,5.06,4.8,7.6,7.21,0,0-.61.8-.61.8h0Z"/>
  <path class="cls-2" d="M534.38,708.96c-156.06-5-301.72-89.46-379.32-225.88-53.64-93.37-74.87-205.66-55.11-311.88.41-2.18,2.53-3.61,4.71-3.18l65.64,12.89c2.15.42,3.55,2.5,3.15,4.66-7.51,40.66-9.41,82.75-5.4,124.04,6.05,63.11,25.78,124.99,57.28,180.04,48.96,86.57,127.36,154.99,220.34,191.29,28.52,11.45,58.31,20.24,88.83,27.01,0,0-.12.99-.12.99h0Z"/>
  <path class="cls-1" d="M691.63,699.93c-142.49,71.54-319.92,64.03-458.23-14.64C122.47,623.13,34.26,518.22.14,394.89c-.59-2.14.69-4.35,2.83-4.92l70.99-19.02c2.12-.57,4.29.68,4.88,2.8,11.11,39.65,27.77,78.17,49.38,113.42,41.25,67.73,100.22,124.29,168.42,164.64,112.62,67.06,242.55,85.89,369.91,53.82,8.12-1.93,16.82-4.44,24.7-6.62,0,0,.37.93.37.93h0Z"/>
</svg>